<svg xmlns="http://www.w3.org/2000/svg" viewBox="0 0 900 600">
  <!-- 빨간색 배경 -->
  <rect width="900" height="600" fill="#de2910"/>

  <!-- 큰 별 -->
  <polygon fill="#ffde00" points="150,150 170,207 230,207 180,240 200,297 150,265 100,297 120,240 70,207 130,207"/>

  <!-- 작은 별 1 (23도 회전) -->
  <polygon fill="#ffde00" points="300,75 310,100 335,98 320,113 325,138 300,123 275,138 280,113 265,98 290,100" transform="rotate(23 300,100)"/>

  <!-- 작은 별 2 (45도 회전) -->
  <polygon fill="#ffde00" points="350,150 360,175 385,173 370,188 375,213 350,198 325,213 330,188 315,173 340,175" transform="rotate(45 350,175)"/>

  <!-- 작은 별 3 (68도 회전) -->
  <polygon fill="#ffde00" points="350,225 360,250 385,248 370,263 375,288 350,273 325,288 330,263 315,248 340,250" transform="rotate(68 350,250)"/>

  <!-- 작은 별 4 (90도 회전) -->
  <polygon fill="#ffde00" points="300,300 310,325 335,323 320,338 325,363 300,348 275,363 280,338 265,323 290,325" transform="rotate(90 300,325)"/>
</svg>
